<?xml version="1.0" encoding="utf-8"?>
<!-- Generator: Adobe Illustrator 16.0.0, SVG Export Plug-In . SVG Version: 6.00 Build 0)  -->
<!DOCTYPE svg PUBLIC "-//W3C//DTD SVG 1.1//EN" "http://www.w3.org/Graphics/SVG/1.1/DTD/svg11.dtd">
<svg version="1.1" id="Layer_1" xmlns="http://www.w3.org/2000/svg" xmlns:xlink="http://www.w3.org/1999/xlink" x="0px" y="0px"
	 width="244.5px" height="74.5px" viewBox="0 0 244.5 74.5" enable-background="new 0 0 244.5 74.5" xml:space="preserve">
<g>
	<path fill="#933E45" d="M65,37.513c-0.012,17.729-14.352,32.075-32.018,32.063C15.3,69.564,0.988,55.181,1,37.478
		C1.011,19.762,15.351,5.407,33.017,5.418C50.7,5.426,65.012,19.809,65,37.513z"/>
	<g>
		<path fill="#FFFFFF" d="M31.236,31.989h-3.314c-0.158,0-0.236-0.025-0.236-0.077c0-0.345,0.052-0.676,0.158-0.996
			c0.105-0.421,0.48-0.638,1.125-0.651l2.567-0.134c0.734-3.344,1.988-6.019,3.762-8.022c0.693-0.792,1.637-1.407,2.831-1.848
			c1.194-0.44,2.205-0.661,3.034-0.661c1.709,0,3.156,0.345,4.34,1.034c1.184,0.689,1.775,1.513,1.775,2.47
			c0,0.319-0.056,0.629-0.168,0.928c-0.112,0.3-0.325,0.572-0.641,0.814c-0.315,0.243-0.704,0.364-1.164,0.364
			c-0.513,0-0.937-0.144-1.272-0.431s-0.562-0.584-0.681-0.891c-0.118-0.306-0.224-0.689-0.315-1.148
			c-0.105-0.459-0.299-0.775-0.582-0.948s-0.713-0.259-1.292-0.259c-1.276,0-2.249,0.832-2.919,2.494
			c-0.46,1.126-0.842,2.424-1.144,3.895l-0.434,2.208h4.438c0.184,0,0.276,0.07,0.276,0.21l-0.197,1.168
			c-0.079,0.319-0.427,0.479-1.045,0.479h-3.837l-0.13,0.663c-0.24,1.218-0.563,2.86-0.97,4.925s-0.688,3.5-0.847,4.304
			c-0.868,4.324-2.262,7.786-4.184,10.388c-0.053,0.076-0.273,0.37-0.661,0.88c-0.732,0.982-1.595,1.721-2.587,2.219
			c-0.993,0.498-2.009,0.746-3.048,0.746c-1.499,0-2.64-0.271-3.422-0.813c-0.782-0.543-1.174-1.126-1.174-1.752
			c0-0.281,0.063-0.555,0.188-0.823s0.339-0.501,0.641-0.699c0.303-0.198,0.664-0.297,1.085-0.297
			c0.802,0.025,1.559,0.498,2.269,1.417c0.026,0.038,0.069,0.105,0.128,0.201c0.06,0.096,0.099,0.16,0.119,0.191
			c0.02,0.032,0.059,0.086,0.118,0.163s0.108,0.13,0.148,0.163c0.04,0.032,0.089,0.07,0.148,0.115s0.122,0.077,0.188,0.096
			c0.066,0.02,0.138,0.039,0.217,0.058c0.079,0.019,0.165,0.029,0.257,0.029c0.236,0,0.496-0.061,0.779-0.182
			s0.549-0.291,0.799-0.507c0.25-0.217,0.466-0.46,0.651-0.728c0.434-0.664,0.805-1.545,1.114-2.643
			c0.309-1.098,0.527-2.044,0.655-2.838c0.127-0.794,0.301-1.913,0.521-3.355c0.055-0.367,0.101-0.655,0.137-0.864
			s0.083-0.465,0.138-0.769c0.055-0.304,0.101-0.576,0.137-0.816C29.81,40.677,30.317,37.521,31.236,31.989z"/>
	</g>
</g>
<g>
	<path fill="#494949" d="M90.493,52.528l-0.053,0.633c0,1.158,0.826,1.737,2.479,1.737h0.765c0.281,0,0.386,0.167,0.316,0.501
		l-0.211,1.239l-0.158,0.105c-3.432-0.07-5.783-0.105-7.052-0.105l-7.074,0.105l-0.053-0.105l0.211-1.239
		c0.035-0.316,0.202-0.483,0.501-0.501h0.686c1.037,0,1.802-0.18,2.294-0.541c0.492-0.359,0.826-0.971,1.002-1.832l4.688-26.553
		l0.079-0.7c0-0.413-0.088-0.746-0.264-0.997s-0.444-0.436-0.804-0.552s-0.839-0.175-1.437-0.175h-0.738
		c-0.281,0-0.396-0.145-0.343-0.435l0.237-1.203l0.158-0.102h24.132c-0.458,2.707-0.686,5.625-0.686,8.754l-1.951,0.475
		c-0.352-4.5-1.774-6.75-4.27-6.75h-6.747c-0.475,0-0.817,0.528-1.028,1.583l-1.948,11.1h5.847c0.579,0,1.036-0.294,1.37-0.883
		c0.333-0.589,0.72-1.569,1.159-2.94c0-0.105,0.088-0.228,0.264-0.369c0.175-0.141,0.396-0.211,0.659-0.211h1.081l0.211,0.527
		c-0.58,1.916-0.993,3.586-1.239,5.01c-0.247,1.512-0.431,3.19-0.554,5.036l-0.369,0.475h-1.081c-0.247,0-0.444-0.062-0.593-0.185
		c-0.149-0.123-0.207-0.237-0.171-0.343c0.035-0.668,0.053-1.178,0.053-1.529c0-1.529-0.397-2.303-1.19-2.32h-5.844L90.493,52.528z"
		/>
	<path fill="#494949" d="M116.917,39.405l-2.401,10.078c-0.021,0.085-0.061,0.252-0.119,0.5c-0.059,0.248-0.108,0.453-0.146,0.615
		s-0.083,0.346-0.131,0.552c-0.049,0.205-0.1,0.399-0.153,0.582c-0.053,0.184-0.08,0.354-0.08,0.511c0,0.14,0.013,0.262,0.038,0.366
		c0.026,0.104,0.061,0.196,0.103,0.275c0.043,0.078,0.099,0.139,0.167,0.183s0.154,0.065,0.257,0.065
		c0.702,0,1.806-0.616,3.313-1.849c0.756,0,1.222,0.467,1.397,1.399c-1.905,1.583-3.565,2.734-4.982,3.455s-2.927,1.081-4.532,1.081
		c-1.604,0-2.406-1.011-2.406-3.032c0-1.02,0.22-2.435,0.659-4.245l2.431-10.308c0.19-1.38,0.285-2.31,0.285-2.788
		c0-0.69-0.3-1.053-0.9-1.088l-2.05-0.16c-0.167-0.242-0.246-0.541-0.238-0.896s0.104-0.636,0.288-0.844
		c3.643-0.475,6.658-0.712,9.046-0.712c0.719,0,1.079,0.376,1.079,1.127c0,0.125-0.002,0.28-0.007,0.467
		c-0.005,0.187-0.011,0.391-0.019,0.613c-0.008,0.222-0.04,0.449-0.094,0.68c-0.055,0.231-0.118,0.496-0.189,0.795
		c-0.071,0.299-0.136,0.568-0.192,0.808c-0.057,0.239-0.129,0.532-0.218,0.878C117.033,38.859,116.964,39.157,116.917,39.405z
		 M113.431,28.149c-0.611-0.624-0.917-1.388-0.917-2.294c0-0.905,0.305-1.67,0.917-2.294c0.611-0.624,1.353-0.936,2.227-0.936
		s1.623,0.313,2.248,0.936c0.625,0.624,0.938,1.389,0.938,2.294c0,0.906-0.313,1.67-0.938,2.294
		c-0.625,0.624-1.374,0.936-2.248,0.936S114.042,28.773,113.431,28.149z"/>
	<path fill="#494949" d="M126.645,26.298c0.118-0.514,0.213-0.929,0.287-1.246c0.072-0.317,0.113-0.623,0.122-0.919
		c0.009-0.295,0.009-0.521,0-0.678c-0.009-0.156-0.079-0.309-0.211-0.456s-0.255-0.251-0.369-0.313s-0.325-0.126-0.633-0.196
		s-0.584-0.113-0.831-0.131c-0.246-0.017-0.624-0.052-1.133-0.104c-0.176-0.517-0.088-1.132,0.264-1.846
		c4.078-0.175,7.383-0.65,9.914-1.424c0.264,0,0.461,0.062,0.593,0.185c0.132,0.123,0.171,0.299,0.119,0.527
		c0,0.036-0.009,0.079-0.026,0.132c-0.018,0.053-0.055,0.172-0.112,0.358c-0.057,0.186-0.114,0.381-0.17,0.584
		c-0.057,0.204-0.133,0.47-0.228,0.797c-0.095,0.328-0.182,0.663-0.261,1.005c-0.08,0.342-0.174,0.749-0.283,1.22
		c-0.109,0.471-0.217,0.938-0.324,1.4l-5.623,24.267c-0.016,0.068-0.055,0.235-0.116,0.501s-0.108,0.467-0.14,0.604
		s-0.074,0.32-0.128,0.552c-0.053,0.231-0.089,0.436-0.106,0.612c-0.018,0.176-0.026,0.344-0.026,0.502
		c0,0.142,0.009,0.265,0.026,0.371c0.017,0.105,0.048,0.198,0.093,0.278c0.044,0.079,0.101,0.141,0.172,0.186
		c0.071,0.044,0.159,0.065,0.266,0.065c0.724,0,1.864-0.614,3.42-1.844c0.76,0,1.228,0.465,1.405,1.396
		c-1.916,1.582-3.59,2.733-5.023,3.454c-1.433,0.721-2.958,1.081-4.575,1.081c-1.618,0-2.426-1.011-2.426-3.032
		c0-0.967,0.211-2.382,0.633-4.245L126.645,26.298z"/>
	<path fill="#494949" d="M155.226,36.758c0,0.58-0.044,1.121-0.133,1.622c-0.089,0.501-0.417,1.204-0.986,2.109
		c-0.569,0.906-1.333,1.71-2.292,2.413s-2.417,1.406-4.371,2.109c-1.955,0.703-4.274,1.248-6.957,1.635
		c-0.172,2.232,0.173,3.872,1.036,4.917c0.863,1.047,1.813,1.569,2.852,1.569c3.022,0,5.776-1.318,8.265-3.955
		c0.413,0,0.763,0.154,1.051,0.462s0.413,0.681,0.377,1.12c-3.125,4.324-7.242,6.478-12.351,6.46c-2.88,0-4.912-0.888-6.097-2.663
		s-1.777-4.034-1.777-6.776c0-1.582,0.333-3.23,1.002-4.943c0.668-1.715,1.604-3.336,2.808-4.865
		c1.204-1.529,2.795-2.786,4.772-3.771c1.978-0.984,4.135-1.477,6.473-1.477C153.116,32.707,155.226,34.051,155.226,36.758z
		 M149.082,36.969c0-1.266-0.697-1.889-2.09-1.872c-2.557,0-4.637,3.164-6.241,9.492C146.305,43.692,149.082,41.152,149.082,36.969z
		"/>
	<path fill="#494949" d="M164.485,57.219c-2.501,0-4.612-0.98-6.335-2.94s-2.583-3.916-2.583-5.867c0-4.302,1.5-7.992,4.499-11.07
		c2.999-3.078,6.261-4.617,9.787-4.617c2.78,0,4.808,0.567,6.083,1.701c1.274,1.134,1.912,2.492,1.912,4.074
		c0,0.861-0.412,1.525-1.234,1.99c-0.823,0.467-1.547,0.699-2.173,0.699c-1.983,0-2.965-0.635-2.947-1.902
		c0-0.274,0.035-0.613,0.105-1.016c0.07-0.403,0.105-0.887,0.105-1.453c0-0.668-0.189-1.14-0.568-1.414
		c-0.379-0.274-0.754-0.412-1.124-0.412c-1.957,0-3.747,1.148-5.368,3.446c-1.622,2.297-2.433,5.25-2.433,8.86
		c0,2.66,0.41,4.491,1.229,5.492c0.82,1.002,1.732,1.503,2.737,1.503c0.689,0,1.718-0.38,3.088-1.14
		c1.369-0.76,2.566-1.71,3.591-2.85l2.2,1.813c-1.559,1.628-3.139,2.886-4.742,3.772C168.712,56.775,166.769,57.219,164.485,57.219z
		"/>
	<path fill="#494949" d="M176.079,47.832c0-1.693,0.313-3.4,0.938-5.12c0.625-1.72,1.507-3.338,2.646-4.855
		c1.138-1.517,2.659-2.752,4.562-3.705c1.903-0.953,3.993-1.429,6.27-1.429c1.749,0,3.271,0.27,4.565,0.809
		c1.294,0.54,2.274,1.273,2.939,2.201c0.665,0.929,1.15,1.879,1.456,2.852c0.306,0.973,0.459,2.007,0.459,3.103
		c0,4.205-1.491,7.845-4.473,10.919s-6.357,4.611-10.128,4.611c-1.449,0-2.738-0.232-3.868-0.694
		c-1.129-0.463-2.022-1.045-2.677-1.744c-0.656-0.699-1.194-1.494-1.617-2.386s-0.707-1.713-0.854-2.465
		C176.151,49.179,176.079,48.479,176.079,47.832z M182.723,47.41c0,1.547,0.141,2.861,0.423,3.941
		c0.282,1.082,0.647,1.864,1.097,2.348c0.449,0.483,0.863,0.813,1.242,0.988c0.379,0.176,0.771,0.264,1.177,0.264
		c1.233,0,2.309-0.492,3.225-1.477c0.917-0.984,1.6-2.215,2.049-3.691s0.784-2.874,1.004-4.192s0.331-2.496,0.331-3.533
		c0-4.71-1.26-7.066-3.78-7.066c-1.622,0-2.979,0.738-4.071,2.215c-1.093,1.477-1.815,3.089-2.167,4.839
		C182.899,43.794,182.723,45.582,182.723,47.41z"/>
	<path fill="#494949" d="M211.725,39.405l-2.402,10.078c-0.02,0.085-0.061,0.252-0.119,0.5s-0.107,0.453-0.146,0.615
		s-0.082,0.346-0.131,0.552c-0.049,0.205-0.102,0.399-0.154,0.582c-0.053,0.184-0.078,0.354-0.078,0.511
		c0,0.14,0.012,0.262,0.037,0.366s0.061,0.196,0.104,0.275c0.043,0.078,0.1,0.139,0.168,0.183s0.152,0.065,0.256,0.065
		c0.701,0,1.807-0.616,3.313-1.849c0.756,0,1.223,0.467,1.398,1.399c-1.906,1.583-3.566,2.734-4.982,3.455s-2.928,1.081-4.532,1.081
		s-2.406-1.011-2.406-3.032c0-1.02,0.22-2.435,0.659-4.245l2.431-10.308c0.189-1.38,0.285-2.31,0.285-2.788
		c0-0.69-0.301-1.053-0.9-1.088l-2.05-0.16c-0.167-0.242-0.246-0.541-0.238-0.896s0.104-0.636,0.288-0.844
		c3.643-0.475,6.658-0.712,9.047-0.712c0.719,0,1.078,0.376,1.078,1.127c0,0.125-0.004,0.28-0.008,0.467
		c-0.006,0.187-0.012,0.391-0.02,0.613s-0.039,0.449-0.094,0.68s-0.119,0.496-0.189,0.795c-0.072,0.299-0.135,0.568-0.193,0.808
		c-0.057,0.239-0.129,0.532-0.217,0.878S211.771,39.157,211.725,39.405z M208.238,28.149c-0.611-0.624-0.916-1.388-0.916-2.294
		c0-0.905,0.305-1.67,0.916-2.294c0.611-0.624,1.354-0.936,2.227-0.936s1.623,0.313,2.248,0.936
		c0.625,0.624,0.938,1.389,0.938,2.294c0,0.906-0.313,1.67-0.938,2.294c-0.625,0.624-1.375,0.936-2.248,0.936
		S208.85,28.773,208.238,28.149z"/>
	<path fill="#494949" d="M231.695,50.029l1.888-8.091c0.563-2.62,0.773-4.229,0.633-4.826c-0.211-0.655-0.642-1.001-1.292-1.04
		c-0.678,0-1.681,0.564-3.009,1.691c-1.328,1.128-2.633,2.63-3.915,4.506c-0.844,1.228-1.566,2.707-2.171,4.439
		c-0.604,1.731-1.182,3.771-1.731,6.116c-0.032,0.154-0.081,0.423-0.145,0.805s-0.121,0.679-0.176,0.892
		c-0.055,0.214-0.135,0.479-0.239,0.796c-0.105,0.316-0.245,0.572-0.421,0.766c-0.175,0.193-0.39,0.388-0.644,0.581
		s-0.582,0.334-0.985,0.423c-0.403,0.088-0.858,0.132-1.366,0.132c-1.297,0-2.134-0.114-2.511-0.343
		c-0.378-0.229-0.566-0.598-0.566-1.107c0-0.07,0.229-1.055,0.686-2.953l3.059-13.447c0.211-1.017,0.316-1.89,0.316-2.62
		c0-0.73-0.272-1.107-0.817-1.129l-2.162-0.101c-0.475-0.686-0.492-1.274-0.053-1.767c3.617-0.404,6.486-0.606,8.607-0.606
		c0.713,0,1.069,0.343,1.069,1.028c0,0.141,0.029,0.313,0.087,0.513c0.058,0.201,0.06,0.427,0.006,0.676
		c-0.053,0.25-0.106,0.398-0.16,0.447s-0.125,0.269-0.215,0.66c-0.09,0.392-0.162,0.698-0.216,0.918
		c-0.055,0.221-0.14,0.562-0.256,1.023c-0.117,0.461-0.193,0.792-0.229,0.993l-0.442,0.739l0.051,0.037
		c2.469-2.793,4.618-4.691,6.448-5.692c1.83-1.001,4.113-1.502,6.852-1.502c2.737,0,3.438,2.809,2.104,8.425l-1.922,8.091
		c-0.013,0.051-0.032,0.133-0.059,0.244s-0.048,0.205-0.066,0.282s-0.041,0.172-0.067,0.283s-0.049,0.205-0.067,0.282
		s-0.041,0.171-0.067,0.282s-0.051,0.214-0.072,0.309c-0.022,0.094-0.045,0.188-0.067,0.282c-0.022,0.095-0.043,0.18-0.062,0.257
		s-0.072,0.16-0.16,0.247c-0.089,0.089-0.133,0.177-0.133,0.264c0,0.193,0.018,0.352,0.053,0.475s0.097,0.224,0.185,0.304
		c0.088,0.078,0.202,0.118,0.343,0.118c0.721,0,1.854-0.631,3.401-1.893c0.756,0,1.222,0.478,1.397,1.433
		c-1.916,1.586-3.594,2.74-5.033,3.463c-1.438,0.723-2.964,1.084-4.574,1.084c-1.611,0-2.416-0.998-2.416-2.995
		C230.425,53.251,230.86,51.854,231.695,50.029z"/>
</g>
</svg>
